# Obj file C:\Users\Kyle\Desktop\LMC\ir.obj generated by Autodesk OpenModel \
#    V2013 
# Tue Jul 22 17:37:54 2014
# The units used in this file are Centimeters 
# fromNurbs
# usemtl UNKNOWN
v -3.85 -0.6 1.16
v -3.1 -1.35 1.16
v 3.1 -1.35 1.16
v 3.85 -0.6 1.16
v 3.85 0.6 1.16
v 3.1 1.35 1.16
v -3.1 1.35 1.16
v -3.85 0.6 1.16
v -0.6551713 -1.35 1.16
v -0.6551713 1.35 1.16
v -3.823298 -0.8541683 1.16
v -0.6551713 -0.8541683 1.16
v -3.512314 -1.265419 1.16
v -3.512314 -0.8541683 1.16
v -3.598952 -1.211311 1.16
v -3.512314 -1.211311 1.16
v -3.754482 -1.03274 1.16
v -3.512314 -1.03274 1.16
v -3.690885 -1.124516 1.16
v -3.690886 -1.03274 1.16
v -3.512314 -1.122025 1.16
v -3.690886 -1.122025 1.16
v -3.6016 -1.209311 1.16
v -3.6016 -1.122025 1.16
v -3.651437 -1.166668 1.16
v -3.6016 -1.166668 1.16
v -3.646243 -1.171607 1.16
v -3.646243 -1.166668 1.16
v -3.646243 -1.122025 1.16
v -3.6016 -1.03274 1.16
v -3.690886 -0.8541683 1.16
v -3.795896 -0.943454 1.16
v -3.690886 -0.943454 1.16
v -3.780171 -0.9816628 1.16
v -3.780171 -0.943454 1.16
v -3.780171 -0.8541683 1.16
v -2.083743 -1.35 1.16
v -2.083743 -0.8541683 1.16
v -2.798028 -1.35 1.16
v -2.798028 -0.8541683 1.16
v -2.798028 -1.211311 1.16
v -3.155171 -1.349106 1.16
v -3.155171 -1.211311 1.16
v -3.333743 -1.32799 1.16
v -3.333743 -1.211311 1.16
v -3.430676 -1.300597 1.16
v -3.333743 -1.300597 1.16
v -3.423028 -1.303267 1.16
v -3.423028 -1.300597 1.16
v -3.423028 -1.211311 1.16
v -3.155171 -1.300597 1.16
v -3.244457 -1.342641 1.16
v -3.244457 -1.300597 1.16
v -3.244457 -1.211311 1.16
v -3.155171 -0.8541683 1.16
v -3.512314 1.265459 1.16
v -3.512314 0.5744031 1.16
v -3.85 0.5744031 1.16
v -3.512314 -0.1398826 1.16
v -3.85 -0.1398826 1.16
v -3.512314 -0.4970255 1.16
v -3.85 -0.4970255 1.16
v -3.84824 -0.6755968 1.16
v -3.512314 -0.6755969 1.16
v -3.690886 -0.6755969 1.16
v -3.840084 -0.7648826 1.16
v -3.690886 -0.7648826 1.16
v -3.780171 -0.7648826 1.16
v -3.780171 -0.6755969 1.16
v -3.690886 -0.4970255 1.16
v -3.512314 0.931546 1.16
v -3.800287 0.9315459 1.16
v -3.512314 0.7529746 1.16
v -3.841622 0.7529746 1.16
v -3.690886 0.7529746 1.16
v -3.690886 0.5744031 1.16
v -3.690886 0.931546 1.16
v -3.826102 0.8422602 1.16
v -3.690886 0.8422602 1.16
v -3.780171 0.7529746 1.16
v -3.780171 0.8422602 1.16
v -3.780171 0.931546 1.16
v -3.512314 1.110117 1.16
v -3.702713 1.110117 1.16
v -3.690886 1.110117 1.16
v -3.760955 1.020832 1.16
v -3.690886 1.020832 1.16
v -3.780171 0.9816472 1.16
v -3.690886 1.124593 1.16
v -3.512314 1.199403 1.16
v -3.61419 1.199403 1.16
v -3.6016 1.199403 1.16
v -3.6016 1.110117 1.16
v -3.6016 1.209262 1.16
v -0.6551713 0.5744031 1.16
v -2.083743 0.5744031 1.16
v -2.083743 1.35 1.16
v -3.461789 1.288689 1.16
v -2.083743 1.288689 1.16
v -2.798028 0.5744031 1.16
v -2.798028 1.288689 1.16
v -2.798028 1.35 1.16
v -3.155171 1.349102 1.16
v -3.155171 1.288689 1.16
v -3.333743 1.327989 1.16
v -3.333743 1.288689 1.16
v -3.244457 1.342652 1.16
v -3.244457 1.288689 1.16
v 2.201972 -1.35 1.16
v 2.201972 1.35 1.16
v 2.201972 -0.8541683 1.16
v 0.7734002 -1.35 1.16
v 0.7734002 -0.8541683 1.16
v 2.201972 0.5744031 1.16
v 0.7734002 0.5744031 1.16
v 0.7734002 1.35 1.16
v 3.823306 -0.8541683 1.16
v 3.630543 -1.185723 1.16
v 3.630543 -0.8541683 1.16
v 2.916257 -1.35 1.16
v 2.916257 -0.8541683 1.16
v 3.598892 -1.211311 1.16
v 2.916257 -1.211311 1.16
v 3.2734 -1.33888 1.16
v 3.2734 -1.211311 1.16
v 3.094829 -1.35 1.16
v 3.094829 -1.211311 1.16
v 3.2734 -1.300597 1.16
v 3.094829 -1.300597 1.16
v 3.184114 -1.347783 1.16
v 3.184114 -1.300597 1.16
v 3.184114 -1.211311 1.16
v 3.451972 -1.292623 1.16
v 3.451972 -1.211311 1.16
v 3.43061 -1.300597 1.16
v 3.362686 -1.321181 1.16
v 3.362686 -1.300597 1.16
v 3.362686 -1.211311 1.16
v 3.541257 -1.249601 1.16
v 3.541257 -1.211311 1.16
v 3.2734 -0.8541683 1.16
v 3.75443 -1.03274 1.16
v 3.630543 -1.03274 1.16
v 3.693042 -1.122025 1.16
v 3.630543 -1.122025 1.16
v 3.719829 -1.087309 1.16
v 3.719829 -1.03274 1.16
v 3.809114 -0.9052403 1.16
v 3.809114 -0.8541683 1.16
v 3.795917 -0.943454 1.16
v 3.630543 -0.943454 1.16
v 3.719829 -0.943454 1.16
v 3.719829 -0.8541683 1.16
v 3.85 0.5744031 1.16
v 3.630543 0.5744031 1.16
v 3.85 -0.1398826 1.16
v 3.630543 -0.1398826 1.16
v 3.85 -0.4970255 1.16
v 3.630543 -0.4970255 1.16
v 3.848245 -0.6755968 1.16
v 3.630543 -0.6755969 1.16
v 3.809114 -0.6755969 1.16
v 3.840069 -0.7648826 1.16
v 3.809114 -0.7648826 1.16
v 3.809114 -0.4970255 1.16
v 3.630543 1.185787 1.16
v 3.461816 1.288689 1.16
v 2.201972 1.288689 1.16
v 2.916257 1.288689 1.16
v 2.916257 0.5744031 1.16
v 2.916257 0.931546 1.16
v 3.630543 0.931546 1.16
v 3.2734 0.5744031 1.16
v 3.2734 0.931546 1.16
v 3.2734 1.288689 1.16
v 3.2734 1.110117 1.16
v 3.630543 1.110117 1.16
v 3.451972 0.931546 1.16
v 3.451972 1.110117 1.16
v 3.451972 1.288689 1.16
v 3.614267 1.199403 1.16
v 3.451972 1.199403 1.16
v 3.541257 1.199403 1.16
v 3.541257 1.110117 1.16
v 3.541257 1.249553 1.16
v 2.916257 1.35 1.16
v 3.2734 1.338866 1.16
v 3.094829 1.35 1.16
v 3.094829 1.288689 1.16
v 3.184114 1.347787 1.16
v 3.184114 1.288689 1.16
v 3.451972 1.29264 1.16
v 3.362686 1.321192 1.16
v 3.362686 1.288689 1.16
v 3.800264 0.931546 1.16
v 3.841635 0.7529746 1.16
v 3.630543 0.7529746 1.16
v 3.809114 0.7529746 1.16
v 3.809114 0.5744031 1.16
v 3.809114 0.9051689 1.16
v 3.826098 0.8422602 1.16
v 3.809114 0.8422602 1.16
v 3.702653 1.110117 1.16
v 3.761002 1.020832 1.16
v 3.630543 1.020832 1.16
v 3.719829 1.020832 1.16
v 3.719829 0.931546 1.16
v 3.719829 1.087272 1.16
vn 0 0 1
vn 0 0 1
vn -0 0 1
vn -0 0 1
vn 0 0 1
vn 0 0 1
vn 0 0 1
vn 0 0 1
vn 0 0 1
vn 0 0 1
vn 0 0 1
vn 0 0 1
vn 0 0 1
vn 0 0 1
vn 0 0 1
vn 0 0 1
vn 0 0 1
vn 0 0 1
vn 0 0 1
vn 0 0 1
vn 0 0 1
vn 0 0 1
vn 0 0 1
vn 0 0 1
vn 0 0 1
vn 0 0 1
vn 0 0 1
vn 0 0 1
vn 0 0 1
vn 0 0 1
vn 0 0 1
vn 0 0 1
vn 0 0 1
vn 0 0 1
vn 0 0 1
vn 0 0 1
vn 0 0 1
vn 0 0 1
vn 0 0 1
vn 0 0 1
vn 0 0 1
vn 0 0 1
vn 0 0 1
vn 0 0 1
vn 0 0 1
vn 0 0 1
vn 0 0 1
vn 0 0 1
vn 0 0 1
vn 0 0 1
vn 0 0 1
vn 0 0 1
vn 0 0 1
vn 0 0 1
vn 0 0 1
vn 0 0 1
vn 0 0 1
vn 0 0 1
vn 0 0 1
vn 0 0 1
vn 0 0 1
vn 0 0 1
vn 0 0 1
vn 0 0 1
vn 0 0 1
vn 0 0 1
vn 0 0 1
vn 0 0 1
vn 0 0 1
vn 0 0 1
vn 0 0 1
vn 0 0 1
vn 0 0 1
vn 0 0 1
vn 0 0 1
vn 0 0 1
vn 0 0 1
vn 0 0 1
vn 0 0 1
vn 0 0 1
vn 0 0 1
vn 0 0 1
vn 0 0 1
vn 0 0 1
vn 0 0 1
vn 0 0 1
vn 0 0 1
vn 0 0 1
vn 0 0 1
vn 0 0 1
vn 0 0 1
vn 0 0 1
vn 0 0 1
vn 0 0 1
vn 0 0 1
vn 0 0 1
vn 0 0 1
vn 0 0 1
vn 0 0 1
vn 0 0 1
vn 0 0 1
vn 0 0 1
vn 0 0 1
vn 0 0 1
vn 0 0 1
vn 0 0 1
vn 0 0 1
vn 0 0 1
vn -0 0 1
vn 0 0 1
vn -0 0 1
vn -0 0 1
vn -0 0 1
vn 0 0 1
vn 0 0 1
vn 0 0 1
vn -0 0 1
vn -0 0 1
vn -0 0 1
vn -0 0 1
vn -0 0 1
vn -0 0 1
vn -0 0 1
vn -0 0 1
vn -0 0 1
vn -0 0 1
vn -0 0 1
vn -0 0 1
vn -0 0 1
vn -0 0 1
vn -0 0 1
vn -0 0 1
vn -0 0 1
vn -0 0 1
vn -0 0 1
vn -0 0 1
vn -0 0 1
vn -0 0 1
vn -0 0 1
vn -0 0 1
vn -0 0 1
vn -0 0 1
vn -0 0 1
vn -0 0 1
vn -0 0 1
vn -0 0 1
vn -0 0 1
vn -0 0 1
vn -0 0 1
vn -0 0 1
vn -0 0 1
vn -0 0 1
vn -0 0 1
vn 0 0 1
vn 0 0 1
vn -0 0 1
vn -0 0 1
vn -0 0 1
vn -0 0 1
vn -0 0 1
vn -0 0 1
vn -0 0 1
vn -0 0 1
vn -0 0 1
vn -0 0 1
vn 0 0 1
vn 0 0 1
vn 0 0 1
vn 0 0 1
vn 0 0 1
vn 0 0 1
vn 0 0 1
vn 0 0 1
vn 0 0 1
vn 0 0 1
vn 0 0 1
vn 0 0 1
vn 0 0 1
vn 0 0 1
vn 0 0 1
vn 0 0 1
vn 0 0 1
vn 0 0 1
vn 0 0 1
vn 0 0 1
vn 0 0 1
vn 0 0 1
vn 0 0 1
vn 0 0 1
vn 0 0 1
vn 0 0 1
vn 0 0 1
vn 0 0 1
vn 0 0 1
vn 0 0 1
vn 0 0 1
vn 0 0 1
vn 0 0 1
vn 0 0 1
vn 0 0 1
vn 0 0 1
vn 0 0 1
vn 0 0 1
vn 0 0 1
vn 0 0 1
vn 0 0 1
vn 0 0 1
vn 0 0 1
vt 0.1090886 0.168274
vt 0.1840886 0.09327397
vt 0.8040885 0.09327397
vt 0.8790885 0.168274
vt 0.8790885 0.288274
vt 0.8040885 0.363274
vt 0.1840886 0.363274
vt 0.1090886 0.288274
vt 0.4285714 0.09327397
vt 0.4285714 0.363274
vt 0.1117587 0.1428571
vt 0.4285714 0.1428571
vt 0.1428571 0.1017321
vt 0.1428571 0.1428571
vt 0.1341933 0.1071429
vt 0.1428571 0.1071429
vt 0.1186404 0.125
vt 0.1428571 0.125
vt 0.125 0.1158224
vt 0.125 0.125
vt 0.1428571 0.1160714
vt 0.125 0.1160714
vt 0.1339286 0.1073428
vt 0.1339286 0.1160714
vt 0.1289448 0.1116071
vt 0.1339286 0.1116071
vt 0.1294643 0.1111132
vt 0.1294643 0.1116071
vt 0.1294643 0.1160714
vt 0.1339286 0.125
vt 0.125 0.1428571
vt 0.1144989 0.1339286
vt 0.125 0.1339286
vt 0.1160714 0.1301077
vt 0.1160714 0.1339286
vt 0.1160714 0.1428571
vt 0.2857143 0.09327397
vt 0.2857143 0.1428571
vt 0.2142857 0.09327397
vt 0.2142857 0.1428571
vt 0.2142857 0.1071429
vt 0.1785714 0.0933631
vt 0.1785714 0.1071429
vt 0.1607143 0.095475
vt 0.1607143 0.1071429
vt 0.1510209 0.09821428
vt 0.1607143 0.09821428
vt 0.1517857 0.09794728
vt 0.1517857 0.09821428
vt 0.1517857 0.1071429
vt 0.1785714 0.09821428
vt 0.1696429 0.09400994
vt 0.1696429 0.09821428
vt 0.1696429 0.1071429
vt 0.1785714 0.1428571
vt 0.1428571 0.3548199
vt 0.1428571 0.2857143
vt 0.1090886 0.2857143
vt 0.1428571 0.2142857
vt 0.1090886 0.2142857
vt 0.1428571 0.1785714
vt 0.1090886 0.1785714
vt 0.1092645 0.1607143
vt 0.1428571 0.1607143
vt 0.125 0.1607143
vt 0.1100802 0.1517857
vt 0.125 0.1517857
vt 0.1160714 0.1517857
vt 0.1160714 0.1607143
vt 0.125 0.1785714
vt 0.1428571 0.3214286
vt 0.1140598 0.3214286
vt 0.1428571 0.3035714
vt 0.1099264 0.3035714
vt 0.125 0.3035714
vt 0.125 0.2857143
vt 0.125 0.3214286
vt 0.1114784 0.3125
vt 0.125 0.3125
vt 0.1160714 0.3035714
vt 0.1160714 0.3125
vt 0.1160714 0.3214286
vt 0.1428571 0.3392857
vt 0.1238173 0.3392857
vt 0.125 0.3392857
vt 0.1179931 0.3303571
vt 0.125 0.3303571
vt 0.1160714 0.3264387
vt 0.125 0.3407333
vt 0.1428571 0.3482143
vt 0.1326696 0.3482143
vt 0.1339286 0.3482143
vt 0.1339286 0.3392857
vt 0.1339286 0.3492002
vt 0.4285714 0.2857143
vt 0.2857143 0.2857143
vt 0.2857143 0.363274
vt 0.1479097 0.3571429
vt 0.2857143 0.3571429
vt 0.2142857 0.2857143
vt 0.2142857 0.3571429
vt 0.2142857 0.363274
vt 0.1785714 0.3631844
vt 0.1785714 0.3571429
vt 0.1607143 0.3610729
vt 0.1607143 0.3571429
vt 0.1696429 0.3625392
vt 0.1696429 0.3571429
vt 0.7142857 0.09327397
vt 0.7142857 0.363274
vt 0.7142857 0.1428571
vt 0.5714286 0.09327397
vt 0.5714286 0.1428571
vt 0.7142857 0.2857143
vt 0.5714286 0.2857143
vt 0.5714286 0.363274
vt 0.8764192 0.1428571
vt 0.8571429 0.1097016
vt 0.8571429 0.1428571
vt 0.7857143 0.09327397
vt 0.7857143 0.1428571
vt 0.8539777 0.1071429
vt 0.7857143 0.1071429
vt 0.8214286 0.09438593
vt 0.8214286 0.1071429
vt 0.8035714 0.09327397
vt 0.8035714 0.1071429
vt 0.8214286 0.09821428
vt 0.8035714 0.09821428
vt 0.8125 0.09349568
vt 0.8125 0.09821428
vt 0.8125 0.1071429
vt 0.8392857 0.0990117
vt 0.8392857 0.1071429
vt 0.8371496 0.09821428
vt 0.8303571 0.09615587
vt 0.8303571 0.09821428
vt 0.8303571 0.1071429
vt 0.8482143 0.1033139
vt 0.8482143 0.1071429
vt 0.8214286 0.1428571
vt 0.8695316 0.125
vt 0.8571429 0.125
vt 0.8633928 0.1160714
vt 0.8571429 0.1160714
vt 0.8660714 0.1195431
vt 0.8660714 0.125
vt 0.875 0.1377499
vt 0.875 0.1428571
vt 0.8736803 0.1339286
vt 0.8571429 0.1339286
vt 0.8660714 0.1339286
vt 0.8660714 0.1428571
vt 0.8790885 0.2857143
vt 0.8571429 0.2857143
vt 0.8790885 0.2142857
vt 0.8571429 0.2142857
vt 0.8790885 0.1785714
vt 0.8571429 0.1785714
vt 0.8789131 0.1607143
vt 0.8571429 0.1607143
vt 0.875 0.1607143
vt 0.8780954 0.1517857
vt 0.875 0.1517857
vt 0.875 0.1785714
vt 0.8571429 0.3468527
vt 0.8402701 0.3571429
vt 0.7142857 0.3571429
vt 0.7857143 0.3571429
vt 0.7857143 0.2857143
vt 0.7857143 0.3214286
vt 0.8571429 0.3214286
vt 0.8214286 0.2857143
vt 0.8214286 0.3214286
vt 0.8214286 0.3571429
vt 0.8214286 0.3392857
vt 0.8571429 0.3392857
vt 0.8392857 0.3214286
vt 0.8392857 0.3392857
vt 0.8392857 0.3571429
vt 0.8555153 0.3482143
vt 0.8392857 0.3482143
vt 0.8482143 0.3482143
vt 0.8482143 0.3392857
vt 0.8482143 0.3532293
vt 0.7857143 0.363274
vt 0.8214286 0.3621606
vt 0.8035714 0.363274
vt 0.8035714 0.3571429
vt 0.8125 0.3630526
vt 0.8125 0.3571429
vt 0.8392857 0.357538
vt 0.8303571 0.3603932
vt 0.8303571 0.3571429
vt 0.8741149 0.3214286
vt 0.878252 0.3035714
vt 0.8571429 0.3035714
vt 0.875 0.3035714
vt 0.875 0.2857143
vt 0.875 0.3187909
vt 0.8766984 0.3125
vt 0.875 0.3125
vt 0.8643539 0.3392857
vt 0.8701888 0.3303571
vt 0.8571429 0.3303571
vt 0.8660714 0.3303571
vt 0.8660714 0.3214286
vt 0.8660714 0.3370012
s 1
f 203/203/203 166/166/166 177/177/177
f 10/10/10 97/97/97 99/99/99
f 37/37/37 9/9/9 12/12/12
f 14/14/14 31/31/31 33/33/33
f 15/15/15 13/13/13 16/16/16
f 21/21/21 18/18/18 24/24/24
f 17/17/17 19/19/19 22/22/22
f 15/15/15 16/16/16 21/21/21
f 28/28/28 26/26/26 24/24/24
f 27/27/27 23/23/23 26/26/26
f 25/25/25 27/27/27 28/28/28
f 25/25/25 28/28/28 29/29/29
f 30/30/30 20/20/20 22/22/22
f 35/35/35 33/33/33 31/31/31
f 17/17/17 20/20/20 33/33/33
f 32/32/32 34/34/34 35/35/35
f 32/32/32 35/35/35 36/36/36
f 37/37/37 38/38/38 40/40/40
f 41/41/41 40/40/40 43/43/43
f 2/2/2 39/39/39 41/41/41
f 51/51/51 43/43/43 53/53/53
f 49/49/49 47/47/47 45/45/45
f 48/48/48 44/44/44 47/47/47
f 46/46/46 48/48/48 49/49/49
f 46/46/46 49/49/49 50/50/50
f 52/52/52 42/42/42 51/51/51
f 44/44/44 52/52/52 53/53/53
f 47/47/47 53/53/53 54/54/54
f 55/55/55 14/14/14 18/18/18
f 90/90/90 56/56/56 94/94/94
f 76/76/76 58/58/58 60/60/60
f 61/61/61 59/59/59 60/60/60
f 65/65/65 64/64/64 61/61/61
f 14/14/14 64/64/64 65/65/65
f 68/68/68 67/67/67 65/65/65
f 36/36/36 31/31/31 67/67/67
f 11/11/11 36/36/36 68/68/68
f 66/66/66 68/68/68 69/69/69
f 70/70/70 62/62/62 1/1/1
f 73/73/73 71/71/71 77/77/77
f 57/57/57 73/73/73 76/76/76
f 80/80/80 74/74/74 8/8/8
f 81/81/81 79/79/79 77/77/77
f 80/80/80 75/75/75 79/79/79
f 78/78/78 74/74/74 80/80/80
f 72/72/72 78/78/78 81/81/81
f 71/71/71 83/83/83 93/93/93
f 84/84/84 86/86/86 87/87/87
f 88/88/88 82/82/82 77/77/77
f 88/88/88 72/72/72 82/82/82
f 89/89/89 84/84/84 85/85/85
f 83/83/83 90/90/90 93/93/93
f 89/89/89 85/85/85 93/93/93
f 94/94/94 91/91/91 92/92/92
f 38/38/38 12/12/12 95/95/95
f 100/100/100 57/57/57 59/59/59
f 101/101/101 99/99/99 97/97/97
f 100/100/100 96/96/96 99/99/99
f 73/73/73 57/57/57 100/100/100
f 7/7/7 103/103/103 104/104/104
f 107/107/107 108/108/108 104/104/104
f 105/105/105 98/98/98 106/106/106
f 105/105/105 106/106/106 108/108/108
f 168/168/168 110/110/110 116/116/116
f 112/112/112 109/109/109 111/111/111
f 9/9/9 112/112/112 113/113/113
f 111/111/111 114/114/114 113/113/113
f 12/12/12 113/113/113 115/115/115
f 95/95/95 115/115/115 116/116/116
f 148/148/148 117/117/117 149/149/149
f 141/141/141 125/125/125 138/138/138
f 109/109/109 120/120/120 123/123/123
f 139/139/139 122/122/122 140/140/140
f 128/128/128 125/125/125 131/131/131
f 120/120/120 126/126/126 129/129/129
f 124/124/124 128/128/128 131/131/131
f 130/130/130 131/131/131 129/129/129
f 129/129/129 131/131/131 132/132/132
f 133/133/133 134/134/134 138/138/138
f 136/136/136 135/135/135 137/137/137
f 136/136/136 137/137/137 128/128/128
f 128/128/128 137/137/137 138/138/138
f 139/139/139 140/140/140 134/134/134
f 121/121/121 123/123/123 127/127/127
f 146/146/146 142/142/142 147/147/147
f 118/118/118 144/144/144 145/145/145
f 146/146/146 147/147/147 143/143/143
f 148/148/148 149/149/149 153/153/153
f 142/142/142 150/150/150 152/152/152
f 143/143/143 147/147/147 152/152/152
f 151/151/151 152/152/152 153/153/153
f 156/156/156 154/154/154 199/199/199
f 111/111/111 121/121/121 170/170/170
f 156/156/156 157/157/157 159/159/159
f 4/4/4 158/158/158 165/165/165
f 163/163/163 160/160/160 162/162/162
f 161/161/161 119/119/119 153/153/153
f 117/117/117 163/163/163 164/164/164
f 161/161/161 162/162/162 165/165/165
f 167/167/167 192/192/192 180/180/180
f 181/181/181 185/185/185 183/183/183
f 169/169/169 168/168/168 114/114/114
f 173/173/173 155/155/155 197/197/197
f 170/170/170 173/173/173 174/174/174
f 171/171/171 174/174/174 176/176/176
f 178/178/178 172/172/172 205/205/205
f 174/174/174 178/178/178 179/179/179
f 194/194/194 175/175/175 176/176/176
f 183/183/183 184/184/184 177/177/177
f 179/179/179 184/184/184 183/183/183
f 167/167/167 180/180/180 182/182/182
f 168/168/168 169/169/169 186/186/186
f 187/187/187 190/190/190 191/191/191
f 169/169/169 189/189/189 188/188/188
f 6/6/6 188/188/188 189/189/189
f 192/192/192 193/193/193 194/194/194
f 193/193/193 187/187/187 175/175/175
f 201/201/201 200/200/200 202/202/202
f 196/196/196 198/198/198 199/199/199
f 155/155/155 199/199/199 198/198/198
f 207/207/207 172/172/172 197/197/197
f 201/201/201 202/202/202 198/198/198
f 204/204/204 208/208/208 206/206/206
f 204/204/204 206/206/206 207/207/207
f 172/172/172 207/207/207 206/206/206
f 203/203/203 177/177/177 205/205/205
f 96/96/96 95/95/95 10/10/10
f 99/99/99 96/96/96 10/10/10
f 12/12/12 38/38/38 37/37/37
f 33/33/33 20/20/20 30/30/30
f 30/30/30 18/18/18 14/14/14
f 14/14/14 33/33/33 30/30/30
f 18/18/18 30/30/30 24/24/24
f 22/22/22 20/20/20 17/17/17
f 26/26/26 23/23/23 15/15/15
f 21/21/21 24/24/24 26/26/26
f 26/26/26 15/15/15 21/21/21
f 24/24/24 29/29/29 28/28/28
f 26/26/26 28/28/28 27/27/27
f 29/29/29 22/22/22 19/19/19
f 19/19/19 25/25/25 29/29/29
f 29/29/29 24/24/24 30/30/30
f 30/30/30 22/22/22 29/29/29
f 31/31/31 36/36/36 35/35/35
f 33/33/33 35/35/35 34/34/34
f 34/34/34 17/17/17 33/33/33
f 36/36/36 11/11/11 32/32/32
f 41/41/41 39/39/39 37/37/37
f 37/37/37 40/40/40 41/41/41
f 40/40/40 55/55/55 43/43/43
f 51/51/51 42/42/42 2/2/2
f 41/41/41 43/43/43 51/51/51
f 51/51/51 2/2/2 41/41/41
f 43/43/43 54/54/54 53/53/53
f 45/45/45 50/50/50 49/49/49
f 47/47/47 49/49/49 48/48/48
f 50/50/50 16/16/16 13/13/13
f 50/50/50 13/13/13 46/46/46
f 51/51/51 53/53/53 52/52/52
f 53/53/53 47/47/47 44/44/44
f 54/54/54 45/45/45 47/47/47
f 21/21/21 16/16/16 50/50/50
f 54/54/54 43/43/43 55/55/55
f 18/18/18 45/45/45 55/55/55
f 55/55/55 45/45/45 54/54/54
f 45/45/45 18/18/18 21/21/21
f 21/21/21 50/50/50 45/45/45
f 94/94/94 92/92/92 90/90/90
f 60/60/60 59/59/59 57/57/57
f 60/60/60 57/57/57 76/76/76
f 60/60/60 62/62/62 70/70/70
f 70/70/70 61/61/61 60/60/60
f 61/61/61 70/70/70 65/65/65
f 67/67/67 31/31/31 14/14/14
f 14/14/14 65/65/65 67/67/67
f 65/65/65 69/69/69 68/68/68
f 67/67/67 68/68/68 36/36/36
f 68/68/68 66/66/66 11/11/11
f 69/69/69 63/63/63 66/66/66
f 1/1/1 63/63/63 69/69/69
f 69/69/69 65/65/65 70/70/70
f 70/70/70 1/1/1 69/69/69
f 79/79/79 75/75/75 73/73/73
f 73/73/73 77/77/77 79/79/79
f 73/73/73 75/75/75 76/76/76
f 8/8/8 58/58/58 76/76/76
f 8/8/8 75/75/75 80/80/80
f 76/76/76 75/75/75 8/8/8
f 77/77/77 82/82/82 81/81/81
f 79/79/79 81/81/81 80/80/80
f 80/80/80 81/81/81 78/78/78
f 81/81/81 82/82/82 72/72/72
f 93/93/93 85/85/85 87/87/87
f 87/87/87 77/77/77 71/71/71
f 71/71/71 93/93/93 87/87/87
f 87/87/87 85/85/85 84/84/84
f 77/77/77 87/87/87 86/86/86
f 77/77/77 86/86/86 88/88/88
f 90/90/90 92/92/92 93/93/93
f 93/93/93 92/92/92 91/91/91
f 91/91/91 89/89/89 93/93/93
f 95/95/95 96/96/96 38/38/38
f 64/64/64 14/14/14 55/55/55
f 40/40/40 38/38/38 96/96/96
f 55/55/55 40/40/40 100/100/100
f 100/100/100 59/59/59 55/55/55
f 96/96/96 100/100/100 40/40/40
f 55/55/55 59/59/59 61/61/61
f 55/55/55 61/61/61 64/64/64
f 97/97/97 102/102/102 101/101/101
f 99/99/99 101/101/101 100/100/100
f 106/106/106 98/98/98 90/90/90
f 108/108/108 83/83/83 71/71/71
f 100/100/100 101/101/101 104/104/104
f 100/100/100 71/71/71 73/73/73
f 104/104/104 71/71/71 100/100/100
f 71/71/71 104/104/104 108/108/108
f 98/98/98 56/56/56 90/90/90
f 83/83/83 108/108/108 106/106/106
f 90/90/90 83/83/83 106/106/106
f 101/101/101 102/102/102 7/7/7
f 104/104/104 101/101/101 7/7/7
f 104/104/104 103/103/103 107/107/107
f 108/108/108 107/107/107 105/105/105
f 116/116/116 115/115/115 114/114/114
f 116/116/116 114/114/114 168/168/168
f 111/111/111 113/113/113 112/112/112
f 113/113/113 12/12/12 9/9/9
f 114/114/114 115/115/115 113/113/113
f 115/115/115 95/95/95 12/12/12
f 116/116/116 10/10/10 95/95/95
f 140/140/140 118/118/118 145/145/145
f 134/134/134 143/143/143 151/151/151
f 151/151/151 119/119/119 141/141/141
f 141/141/141 138/138/138 151/151/151
f 151/151/151 138/138/138 134/134/134
f 140/140/140 122/122/122 118/118/118
f 143/143/143 134/134/134 140/140/140
f 145/145/145 143/143/143 140/140/140
f 121/121/121 111/111/111 109/109/109
f 123/123/123 121/121/121 109/109/109
f 125/125/125 132/132/132 131/131/131
f 127/127/127 123/123/123 120/120/120
f 129/129/129 127/127/127 120/120/120
f 131/131/131 130/130/130 124/124/124
f 129/129/129 126/126/126 3/3/3
f 3/3/3 130/130/130 129/129/129
f 132/132/132 127/127/127 129/129/129
f 138/138/138 137/137/137 135/135/135
f 138/138/138 135/135/135 133/133/133
f 128/128/128 124/124/124 136/136/136
f 138/138/138 125/125/125 128/128/128
f 134/134/134 133/133/133 139/139/139
f 132/132/132 125/125/125 141/141/141
f 127/127/127 132/132/132 121/121/121
f 141/141/141 121/121/121 132/132/132
f 143/143/143 145/145/145 144/144/144
f 143/143/143 144/144/144 146/146/146
f 153/153/153 152/152/152 150/150/150
f 153/153/153 150/150/150 148/148/148
f 152/152/152 147/147/147 142/142/142
f 152/152/152 151/151/151 143/143/143
f 153/153/153 119/119/119 151/151/151
f 155/155/155 157/157/157 156/156/156
f 199/199/199 155/155/155 156/156/156
f 141/141/141 119/119/119 161/161/161
f 157/157/157 155/155/155 173/173/173
f 121/121/121 157/157/157 170/170/170
f 170/170/170 114/114/114 111/111/111
f 173/173/173 170/170/170 157/157/157
f 159/159/159 157/157/157 121/121/121
f 161/161/161 159/159/159 141/141/141
f 121/121/121 141/141/141 159/159/159
f 165/165/165 158/158/158 156/156/156
f 156/156/156 159/159/159 165/165/165
f 162/162/162 160/160/160 4/4/4
f 4/4/4 165/165/165 162/162/162
f 162/162/162 164/164/164 163/163/163
f 153/153/153 149/149/149 164/164/164
f 164/164/164 162/162/162 161/161/161
f 161/161/161 153/153/153 164/164/164
f 164/164/164 149/149/149 117/117/117
f 165/165/165 159/159/159 161/161/161
f 114/114/114 170/170/170 171/171/171
f 171/171/171 169/169/169 114/114/114
f 197/197/197 172/172/172 178/178/178
f 178/178/178 174/174/174 173/173/173
f 173/173/173 197/197/197 178/178/178
f 174/174/174 171/171/171 170/170/170
f 176/176/176 175/175/175 191/191/191
f 189/189/189 169/169/169 171/171/171
f 171/171/171 176/176/176 189/189/189
f 191/191/191 189/189/189 176/176/176
f 205/205/205 177/177/177 184/184/184
f 184/184/184 179/179/179 178/178/178
f 205/205/205 184/184/184 178/178/178
f 179/179/179 176/176/176 174/174/174
f 182/182/182 180/180/180 194/194/194
f 176/176/176 179/179/179 182/182/182
f 182/182/182 194/194/194 176/176/176
f 177/177/177 166/166/166 181/181/181
f 181/181/181 183/183/183 177/177/177
f 183/183/183 182/182/182 179/179/179
f 182/182/182 183/183/183 185/185/185
f 182/182/182 185/185/185 167/167/167
f 186/186/186 110/110/110 168/168/168
f 191/191/191 175/175/175 187/187/187
f 188/188/188 186/186/186 169/169/169
f 189/189/189 191/191/191 190/190/190
f 189/189/189 190/190/190 6/6/6
f 194/194/194 180/180/180 192/192/192
f 175/175/175 194/194/194 193/193/193
f 199/199/199 154/154/154 5/5/5
f 5/5/5 196/196/196 199/199/199
f 198/198/198 197/197/197 155/155/155
f 200/200/200 195/195/195 207/207/207
f 197/197/197 198/198/198 202/202/202
f 202/202/202 207/207/207 197/197/197
f 207/207/207 202/202/202 200/200/200
f 198/198/198 196/196/196 201/201/201
f 207/207/207 195/195/195 204/204/204
f 206/206/206 205/205/205 172/172/172
f 205/205/205 206/206/206 208/208/208
f 205/205/205 208/208/208 203/203/203
s off
# End of Obj file C:\Users\Kyle\Desktop\LMC\ir.obj
